<svg width="97" height="42" viewBox="0 0 97 42" fill="none" xmlns="http://www.w3.org/2000/svg">
<rect x="0.5" y="0.5" width="95.5" height="41" rx="6.5" fill="white"/>
<path d="M32.686 11H14.314C13.1688 11.0015 12.0711 11.4435 11.2621 12.2288C10.4532 13.0141 9.9992 14.0784 10 15.1877V26.8123C9.9992 27.9216 10.4532 28.9859 11.2621 29.7712C12.0711 30.5565 13.1688 30.9985 14.314 31H32.686C33.8312 30.9985 34.9289 30.5565 35.7379 29.7712C36.5468 28.9859 37.0008 27.9216 37 26.8123V15.1877C37.0008 14.0784 36.5468 13.0141 35.7379 12.2288C34.9289 11.4435 33.8312 11.0015 32.686 11ZM14.314 12.3107H32.686C33.0755 12.311 33.4611 12.3858 33.8207 12.5306C34.1804 12.6754 34.5071 12.8875 34.782 13.1547C35.057 13.4219 35.275 13.739 35.4234 14.0878C35.5718 14.4367 35.6478 14.8104 35.647 15.1877V15.2865H11.347V15.1877C11.3462 14.8099 11.4224 14.4357 11.5712 14.0865C11.72 13.7373 11.9384 13.4199 12.2141 13.1527C12.4897 12.8854 12.8171 12.6734 13.1774 12.5289C13.5378 12.3845 13.924 12.3103 14.314 12.3107ZM32.686 29.6893H14.314C13.9245 29.689 13.5389 29.6142 13.1793 29.4694C12.8196 29.3246 12.4929 29.1125 12.218 28.8453C11.943 28.5781 11.725 28.261 11.5766 27.9122C11.4282 27.5633 11.3522 27.1896 11.353 26.8123V19.2563H35.653V26.8123C35.6538 27.1901 35.5776 27.5643 35.4288 27.9135C35.28 28.2627 35.0616 28.5801 34.7859 28.8473C34.5103 29.1146 34.1829 29.3266 33.8226 29.4711C33.4622 29.6155 33.076 29.6897 32.686 29.6893Z" fill="#FA5022" stroke="#FA5022"/>
<rect x="47" y="6" width="43.5" height="30" rx="4" fill="#1A1A1A"/>
<path d="M56.0896 19.192L55.7696 17.56L59.2416 16.12H61.2736V27H59.0816V17.912L56.0896 19.192ZM72.7661 25.224V27H65.1981V25.912C65.1981 25.4 65.2728 24.92 65.4221 24.472C65.5715 24.024 65.7421 23.6507 65.9341 23.352C66.1368 23.0427 66.4088 22.744 66.7501 22.456C67.0915 22.168 67.3795 21.944 67.6141 21.784C67.8595 21.624 68.1688 21.4427 68.5421 21.24C69.3208 20.824 69.8488 20.4827 70.1261 20.216C70.4035 19.9387 70.5421 19.5813 70.5421 19.144C70.5421 18.6427 70.3928 18.2747 70.0941 18.04C69.7955 17.8053 69.3155 17.688 68.6541 17.688C67.7155 17.688 66.7555 17.9333 65.7741 18.424L65.4701 16.792C66.5581 16.248 67.6941 15.976 68.8781 15.976C71.4915 15.976 72.7981 17 72.7981 19.048C72.7981 19.4213 72.7395 19.768 72.6221 20.088C72.5155 20.3973 72.3875 20.664 72.2381 20.888C72.0888 21.1013 71.8648 21.3253 71.5661 21.56C71.2675 21.7947 71.0061 21.9813 70.7821 22.12C70.5581 22.2587 70.2488 22.44 69.8541 22.664C69.0328 23.1227 68.4301 23.5333 68.0461 23.896C67.6728 24.2587 67.4541 24.7013 67.3901 25.224H72.7661ZM76.6266 27H74.1306L77.1226 22.68L74.3226 18.648H76.8506L78.3386 21.24L79.8266 18.648H82.2906L79.5066 22.664L82.4986 27H79.9386L78.2906 24.12L76.6266 27Z" fill="white"/>
<rect x="0.5" y="0.5" width="95.5" height="41" rx="6.5" stroke="#E1E4E6"/>
</svg>
