<svg width="83" height="42" viewBox="0 0 83 42" fill="none" xmlns="http://www.w3.org/2000/svg">
<rect x="0.5" y="0.5" width="82" height="41" rx="6.5" fill="white"/>
<path d="M32.686 11H14.314C13.1688 11.0015 12.0711 11.4435 11.2621 12.2288C10.4532 13.0141 9.9992 14.0784 10 15.1877V26.8123C9.9992 27.9216 10.4532 28.9859 11.2621 29.7712C12.0711 30.5565 13.1688 30.9985 14.314 31H32.686C33.8312 30.9985 34.9289 30.5565 35.7379 29.7712C36.5468 28.9859 37.0008 27.9216 37 26.8123V15.1877C37.0008 14.0784 36.5468 13.0141 35.7379 12.2288C34.9289 11.4435 33.8312 11.0015 32.686 11ZM14.314 12.3107H32.686C33.0755 12.311 33.4611 12.3858 33.8207 12.5306C34.1804 12.6754 34.5071 12.8875 34.782 13.1547C35.057 13.4219 35.275 13.739 35.4234 14.0878C35.5718 14.4367 35.6478 14.8104 35.647 15.1877V15.2865H11.347V15.1877C11.3462 14.8099 11.4224 14.4357 11.5712 14.0865C11.72 13.7373 11.9384 13.4199 12.2141 13.1527C12.4897 12.8854 12.8171 12.6734 13.1774 12.5289C13.5378 12.3845 13.924 12.3103 14.314 12.3107ZM32.686 29.6893H14.314C13.9245 29.689 13.5389 29.6142 13.1793 29.4694C12.8196 29.3246 12.4929 29.1125 12.218 28.8453C11.943 28.5781 11.725 28.261 11.5766 27.9122C11.4282 27.5633 11.3522 27.1896 11.353 26.8123V19.2563H35.653V26.8123C35.6538 27.1901 35.5776 27.5643 35.4288 27.9135C35.28 28.2627 35.0616 28.5801 34.7859 28.8473C34.5103 29.1146 34.1829 29.3266 33.8226 29.4711C33.4622 29.6155 33.076 29.6897 32.686 29.6893Z" fill="#FA5022" stroke="#FA5022"/>
<rect x="47" y="6" width="30" height="30" rx="4" fill="#1A1A1A"/>
<path d="M57.2599 27.224C55.9585 27.224 54.9185 26.8347 54.1399 26.056C53.3612 25.2773 52.9719 24.0507 52.9719 22.376V21.656C52.9719 19.8853 53.4519 18.4987 54.4119 17.496C55.3719 16.4827 56.5879 15.976 58.0599 15.976C59.1265 15.976 60.0225 16.1627 60.7479 16.536L60.4119 18.152C59.7505 17.832 59.0039 17.672 58.1719 17.672C57.2865 17.672 56.5559 17.992 55.9799 18.632C55.4145 19.2613 55.1105 20.152 55.0679 21.304C55.5052 20.4507 56.3959 20.024 57.7399 20.024C58.8065 20.024 59.6759 20.3333 60.3479 20.952C61.0199 21.5707 61.3559 22.4293 61.3559 23.528C61.3559 24.7227 60.9825 25.64 60.2359 26.28C59.4999 26.9093 58.5079 27.224 57.2599 27.224ZM57.2279 25.64C57.8252 25.64 58.2945 25.4747 58.6359 25.144C58.9879 24.8027 59.1639 24.296 59.1639 23.624C59.1639 22.9627 58.9879 22.4613 58.6359 22.12C58.2945 21.7787 57.8252 21.608 57.2279 21.608C56.6305 21.608 56.1559 21.7787 55.8039 22.12C55.4519 22.4507 55.2759 22.952 55.2759 23.624C55.2759 24.264 55.4572 24.76 55.8199 25.112C56.1932 25.464 56.6625 25.64 57.2279 25.64ZM64.7204 27H62.2244L65.2164 22.68L62.4164 18.648H64.9444L66.4324 21.24L67.9204 18.648H70.3844L67.6004 22.664L70.5924 27H68.0324L66.3844 24.12L64.7204 27Z" fill="white"/>
<rect x="0.5" y="0.5" width="82" height="41" rx="6.5" stroke="#E1E4E6"/>
</svg>
