<svg width="97" height="42" viewBox="0 0 97 42" fill="none" xmlns="http://www.w3.org/2000/svg">
<rect x="0.5" y="0.5" width="95.5" height="41" rx="6.5" fill="white"/>
<path d="M32.686 11H14.314C13.1688 11.0015 12.0711 11.4435 11.2621 12.2288C10.4532 13.0141 9.9992 14.0784 10 15.1877V26.8123C9.9992 27.9216 10.4532 28.9859 11.2621 29.7712C12.0711 30.5565 13.1688 30.9985 14.314 31H32.686C33.8312 30.9985 34.9289 30.5565 35.7379 29.7712C36.5468 28.9859 37.0008 27.9216 37 26.8123V15.1877C37.0008 14.0784 36.5468 13.0141 35.7379 12.2288C34.9289 11.4435 33.8312 11.0015 32.686 11ZM14.314 12.3107H32.686C33.0755 12.311 33.4611 12.3858 33.8207 12.5306C34.1804 12.6754 34.5071 12.8875 34.782 13.1547C35.057 13.4219 35.275 13.739 35.4234 14.0878C35.5718 14.4367 35.6478 14.8104 35.647 15.1877V15.2865H11.347V15.1877C11.3462 14.8099 11.4224 14.4357 11.5712 14.0865C11.72 13.7373 11.9384 13.4199 12.2141 13.1527C12.4897 12.8854 12.8171 12.6734 13.1774 12.5289C13.5378 12.3845 13.924 12.3103 14.314 12.3107ZM32.686 29.6893H14.314C13.9245 29.689 13.5389 29.6142 13.1793 29.4694C12.8196 29.3246 12.4929 29.1125 12.218 28.8453C11.943 28.5781 11.725 28.261 11.5766 27.9122C11.4282 27.5633 11.3522 27.1896 11.353 26.8123V19.2563H35.653V26.8123C35.6538 27.1901 35.5776 27.5643 35.4288 27.9135C35.28 28.2627 35.0616 28.5801 34.7859 28.8473C34.5103 29.1146 34.1829 29.3266 33.8226 29.4711C33.4622 29.6155 33.076 29.6897 32.686 29.6893Z" fill="#FA5022" stroke="#FA5022"/>
<rect x="47" y="6" width="43.5" height="30" rx="4" fill="#1A1A1A"/>
<path d="M57.3133 23.304H54.6413V21.656H57.3133V19H59.0733V21.656H61.7292V23.304H59.0733V25.976H57.3133V23.304ZM64.1658 26.312L64.4858 24.696C65.4564 25.1973 66.4751 25.448 67.5418 25.448C69.0031 25.448 69.7338 24.8987 69.7338 23.8C69.7338 22.7333 68.9711 22.2 67.4458 22.2H65.7658V20.552H67.4458C68.8538 20.552 69.5578 20.0667 69.5578 19.096C69.5578 18.1467 68.9124 17.672 67.6218 17.672C66.6084 17.672 65.6484 17.912 64.7418 18.392L64.4218 16.776C65.4564 16.2427 66.6084 15.976 67.8778 15.976C69.0404 15.976 69.9738 16.2053 70.6778 16.664C71.3924 17.112 71.7498 17.8427 71.7498 18.856C71.7498 20.0293 71.1738 20.8507 70.0218 21.32C71.2911 21.7573 71.9258 22.6213 71.9258 23.912C71.9258 25.0427 71.5311 25.864 70.7418 26.376C69.9631 26.888 68.9391 27.144 67.6698 27.144C66.3898 27.144 65.2218 26.8667 64.1658 26.312ZM77.7543 27.224C76.3569 27.224 75.3116 26.8133 74.6183 25.992C73.9249 25.1707 73.5783 23.88 73.5783 22.12V21.032C73.5783 17.608 75.0023 15.896 77.8503 15.896C79.2476 15.896 80.2929 16.3067 80.9862 17.128C81.6903 17.9493 82.0423 19.24 82.0423 21V22.088C82.0423 25.512 80.6129 27.224 77.7543 27.224ZM77.8183 25.512C78.4903 25.512 78.9809 25.2453 79.2903 24.712C79.5996 24.1787 79.7543 23.304 79.7543 22.088V21.032C79.7543 19.816 79.5996 18.9413 79.2903 18.408C78.9809 17.8747 78.4849 17.608 77.8023 17.608C77.1303 17.608 76.6396 17.8747 76.3303 18.408C76.0209 18.9413 75.8663 19.816 75.8663 21.032V22.088C75.8663 23.304 76.0209 24.1787 76.3303 24.712C76.6396 25.2453 77.1356 25.512 77.8183 25.512Z" fill="white"/>
<rect x="0.5" y="0.5" width="95.5" height="41" rx="6.5" stroke="#E1E4E6"/>
</svg>
