<svg width="83" height="42" viewBox="0 0 83 42" fill="none" xmlns="http://www.w3.org/2000/svg">
<rect x="0.5" y="0.5" width="82" height="41" rx="6.5" fill="white"/>
<path d="M32.686 11H14.314C13.1688 11.0015 12.0711 11.4435 11.2621 12.2288C10.4532 13.0141 9.9992 14.0784 10 15.1877V26.8123C9.9992 27.9216 10.4532 28.9859 11.2621 29.7712C12.0711 30.5565 13.1688 30.9985 14.314 31H32.686C33.8312 30.9985 34.9289 30.5565 35.7379 29.7712C36.5468 28.9859 37.0008 27.9216 37 26.8123V15.1877C37.0008 14.0784 36.5468 13.0141 35.7379 12.2288C34.9289 11.4435 33.8312 11.0015 32.686 11ZM14.314 12.3107H32.686C33.0755 12.311 33.4611 12.3858 33.8207 12.5306C34.1804 12.6754 34.5071 12.8875 34.782 13.1547C35.057 13.4219 35.275 13.739 35.4234 14.0878C35.5718 14.4367 35.6478 14.8104 35.647 15.1877V15.2865H11.347V15.1877C11.3462 14.8099 11.4224 14.4357 11.5712 14.0865C11.72 13.7373 11.9384 13.4199 12.2141 13.1527C12.4897 12.8854 12.8171 12.6734 13.1774 12.5289C13.5378 12.3845 13.924 12.3103 14.314 12.3107ZM32.686 29.6893H14.314C13.9245 29.689 13.5389 29.6142 13.1793 29.4694C12.8196 29.3246 12.4929 29.1125 12.218 28.8453C11.943 28.5781 11.725 28.261 11.5766 27.9122C11.4282 27.5633 11.3522 27.1896 11.353 26.8123V19.2563H35.653V26.8123C35.6538 27.1901 35.5776 27.5643 35.4288 27.9135C35.28 28.2627 35.0616 28.5801 34.7859 28.8473C34.5103 29.1146 34.1829 29.3266 33.8226 29.4711C33.4622 29.6155 33.076 29.6897 32.686 29.6893Z" fill="#FA5022" stroke="#FA5022"/>
<rect x="47" y="6" width="30" height="30" rx="4" fill="#1A1A1A"/>
<path d="M53.2439 26.312L53.5639 24.696C54.5345 25.1973 55.5532 25.448 56.6199 25.448C58.0812 25.448 58.8119 24.8987 58.8119 23.8C58.8119 22.7333 58.0492 22.2 56.5239 22.2H54.8439V20.552H56.5239C57.9319 20.552 58.6359 20.0667 58.6359 19.096C58.6359 18.1467 57.9905 17.672 56.6999 17.672C55.6865 17.672 54.7265 17.912 53.8199 18.392L53.4999 16.776C54.5345 16.2427 55.6865 15.976 56.9559 15.976C58.1185 15.976 59.0519 16.2053 59.7559 16.664C60.4705 17.112 60.8279 17.8427 60.8279 18.856C60.8279 20.0293 60.2519 20.8507 59.0999 21.32C60.3692 21.7573 61.0039 22.6213 61.0039 23.912C61.0039 25.0427 60.6092 25.864 59.8199 26.376C59.0412 26.888 58.0172 27.144 56.7479 27.144C55.4679 27.144 54.2999 26.8667 53.2439 26.312ZM64.7204 27H62.2244L65.2164 22.68L62.4164 18.648H64.9444L66.4324 21.24L67.9204 18.648H70.3844L67.6004 22.664L70.5924 27H68.0324L66.3844 24.12L64.7204 27Z" fill="white"/>
<rect x="0.5" y="0.5" width="82" height="41" rx="6.5" stroke="#E1E4E6"/>
</svg>
