<svg width="97" height="42" viewBox="0 0 97 42" fill="none" xmlns="http://www.w3.org/2000/svg">
<rect x="0.5" y="0.5" width="95.5" height="41" rx="6.5" fill="white"/>
<path d="M32.686 11H14.314C13.1688 11.0015 12.0711 11.4435 11.2621 12.2288C10.4532 13.0141 9.9992 14.0784 10 15.1877V26.8123C9.9992 27.9216 10.4532 28.9859 11.2621 29.7712C12.0711 30.5565 13.1688 30.9985 14.314 31H32.686C33.8312 30.9985 34.9289 30.5565 35.7379 29.7712C36.5468 28.9859 37.0008 27.9216 37 26.8123V15.1877C37.0008 14.0784 36.5468 13.0141 35.7379 12.2288C34.9289 11.4435 33.8312 11.0015 32.686 11ZM14.314 12.3107H32.686C33.0755 12.311 33.4611 12.3858 33.8207 12.5306C34.1804 12.6754 34.5071 12.8875 34.782 13.1547C35.057 13.4219 35.275 13.739 35.4234 14.0878C35.5718 14.4367 35.6478 14.8104 35.647 15.1877V15.2865H11.347V15.1877C11.3462 14.8099 11.4224 14.4357 11.5712 14.0865C11.72 13.7373 11.9384 13.4199 12.2141 13.1527C12.4897 12.8854 12.8171 12.6734 13.1774 12.5289C13.5378 12.3845 13.924 12.3103 14.314 12.3107ZM32.686 29.6893H14.314C13.9245 29.689 13.5389 29.6142 13.1793 29.4694C12.8196 29.3246 12.4929 29.1125 12.218 28.8453C11.943 28.5781 11.725 28.261 11.5766 27.9122C11.4282 27.5633 11.3522 27.1896 11.353 26.8123V19.2563H35.653V26.8123C35.6538 27.1901 35.5776 27.5643 35.4288 27.9135C35.28 28.2627 35.0616 28.5801 34.7859 28.8473C34.5103 29.1146 34.1829 29.3266 33.8226 29.4711C33.4622 29.6155 33.076 29.6897 32.686 29.6893Z" fill="#FA5022" stroke="#FA5022"/>
<rect x="47" y="6" width="43.5" height="30" rx="4" fill="#1A1A1A"/>
<path d="M57.3133 23.304H54.6413V21.656H57.3133V19H59.0733V21.656H61.7292V23.304H59.0733V25.976H57.3133V23.304ZM64.9178 19.192L64.5978 17.56L68.0698 16.12H70.1018V27H67.9098V17.912L64.9178 19.192ZM77.1943 25.448C78.7196 25.448 79.4823 24.824 79.4823 23.576C79.4823 22.3387 78.6929 21.72 77.1143 21.72C76.1223 21.72 75.2209 21.832 74.4103 22.056V16.12H81.0343V17.864H76.4263V20.296C76.8529 20.1893 77.3543 20.136 77.9303 20.136C79.1036 20.136 80.0263 20.4347 80.6983 21.032C81.3703 21.6187 81.7063 22.4613 81.7063 23.56C81.7063 24.6907 81.3329 25.5707 80.5863 26.2C79.8396 26.8293 78.7783 27.144 77.4023 27.144C76.1116 27.144 74.9383 26.8667 73.8823 26.312L74.2343 24.728C75.1623 25.208 76.1489 25.448 77.1943 25.448Z" fill="white"/>
<rect x="0.5" y="0.5" width="95.5" height="41" rx="6.5" stroke="#E1E4E6"/>
</svg>
