<svg width="83" height="42" viewBox="0 0 83 42" fill="none" xmlns="http://www.w3.org/2000/svg">
<rect x="0.5" y="0.5" width="82" height="41" rx="6.5" fill="white"/>
<path d="M32.686 11H14.314C13.1688 11.0015 12.0711 11.4435 11.2621 12.2288C10.4532 13.0141 9.9992 14.0784 10 15.1877V26.8123C9.9992 27.9216 10.4532 28.9859 11.2621 29.7712C12.0711 30.5565 13.1688 30.9985 14.314 31H32.686C33.8312 30.9985 34.9289 30.5565 35.7379 29.7712C36.5468 28.9859 37.0008 27.9216 37 26.8123V15.1877C37.0008 14.0784 36.5468 13.0141 35.7379 12.2288C34.9289 11.4435 33.8312 11.0015 32.686 11ZM14.314 12.3107H32.686C33.0755 12.311 33.4611 12.3858 33.8207 12.5306C34.1804 12.6754 34.5071 12.8875 34.782 13.1547C35.057 13.4219 35.275 13.739 35.4234 14.0878C35.5718 14.4367 35.6478 14.8104 35.647 15.1877V15.2865H11.347V15.1877C11.3462 14.8099 11.4224 14.4357 11.5712 14.0865C11.72 13.7373 11.9384 13.4199 12.2141 13.1527C12.4897 12.8854 12.8171 12.6734 13.1774 12.5289C13.5378 12.3845 13.924 12.3103 14.314 12.3107ZM32.686 29.6893H14.314C13.9245 29.689 13.5389 29.6142 13.1793 29.4694C12.8196 29.3246 12.4929 29.1125 12.218 28.8453C11.943 28.5781 11.725 28.261 11.5766 27.9122C11.4282 27.5633 11.3522 27.1896 11.353 26.8123V19.2563H35.653V26.8123C35.6538 27.1901 35.5776 27.5643 35.4288 27.9135C35.28 28.2627 35.0616 28.5801 34.7859 28.8473C34.5103 29.1146 34.1829 29.3266 33.8226 29.4711C33.4622 29.6155 33.076 29.6897 32.686 29.6893Z" fill="#FA5022" stroke="#FA5022"/>
<rect x="47" y="6" width="30" height="30" rx="4" fill="#1A1A1A"/>
<path d="M57.0359 27.224C55.7559 27.224 54.7425 26.952 53.9959 26.408C53.2599 25.864 52.8919 25.1013 52.8919 24.12C52.8919 22.7333 53.5105 21.816 54.7479 21.368C53.6812 20.9413 53.1479 20.1093 53.1479 18.872C53.1479 17.9547 53.4999 17.2293 54.2039 16.696C54.9079 16.1627 55.8785 15.896 57.1159 15.896C58.3105 15.896 59.2545 16.1573 59.9479 16.68C60.6519 17.192 61.0039 17.9067 61.0039 18.824C61.0039 20.0507 60.4759 20.8987 59.4199 21.368C60.6465 21.8053 61.2599 22.7013 61.2599 24.056C61.2599 25.0373 60.8812 25.8107 60.1239 26.376C59.3772 26.9413 58.3479 27.224 57.0359 27.224ZM57.0679 20.584C58.2412 20.584 58.8279 20.0667 58.8279 19.032C58.8279 18.52 58.6732 18.136 58.3639 17.88C58.0652 17.6133 57.6332 17.48 57.0679 17.48C56.5132 17.48 56.0812 17.6133 55.7719 17.88C55.4732 18.136 55.3239 18.52 55.3239 19.032C55.3239 20.0667 55.9052 20.584 57.0679 20.584ZM55.6119 25.208C55.9639 25.496 56.4492 25.64 57.0679 25.64C57.6865 25.64 58.1719 25.496 58.5239 25.208C58.8759 24.92 59.0519 24.488 59.0519 23.912C59.0519 23.336 58.8759 22.904 58.5239 22.616C58.1825 22.3173 57.6972 22.168 57.0679 22.168C56.4492 22.168 55.9639 22.3173 55.6119 22.616C55.2705 22.904 55.0999 23.336 55.0999 23.912C55.0999 24.488 55.2705 24.92 55.6119 25.208ZM64.7204 27H62.2244L65.2164 22.68L62.4164 18.648H64.9444L66.4324 21.24L67.9204 18.648H70.3844L67.6004 22.664L70.5924 27H68.0324L66.3844 24.12L64.7204 27Z" fill="white"/>
<rect x="0.5" y="0.5" width="82" height="41" rx="6.5" stroke="#E1E4E6"/>
</svg>
