<svg width="29" height="22" viewBox="0 0 29 22" fill="none" xmlns="http://www.w3.org/2000/svg">
    <path
        d="M23.686 1H5.314C4.1688 1.0015 3.0711 1.4435 2.2621 2.2288C1.4532 3.0141 0.999201 4.0784 1 5.1877V16.8123C0.999201 17.9216 1.4532 18.9859 2.2621 19.7712C3.0711 20.5565 4.1688 20.9985 5.314 21H23.686C24.8312 20.9985 25.9289 20.5565 26.7379 19.7712C27.5468 18.9859 28.0008 17.9216 28 16.8123V5.1877C28.0008 4.0784 27.5468 3.0141 26.7379 2.2288C25.9289 1.4435 24.8312 1.0015 23.686 1ZM5.314 2.3107H23.686C24.0755 2.311 24.4611 2.3858 24.8207 2.5306C25.1804 2.6754 25.5071 2.8875 25.782 3.1547C26.057 3.4219 26.275 3.739 26.4234 4.0878C26.5718 4.4367 26.6478 4.8104 26.647 5.1877V5.2865H2.347V5.1877C2.3462 4.8099 2.4224 4.4357 2.5712 4.0865C2.72 3.7373 2.9384 3.4199 3.2141 3.1527C3.4897 2.8854 3.8171 2.6734 4.1774 2.5289C4.5378 2.3845 4.924 2.3103 5.314 2.3107ZM23.686 19.6893H5.314C4.9245 19.689 4.5389 19.6142 4.1793 19.4694C3.8196 19.3246 3.4929 19.1125 3.218 18.8453C2.943 18.5781 2.725 18.261 2.5766 17.9122C2.4282 17.5633 2.3522 17.1896 2.353 16.8123V9.2563H26.653V16.8123C26.6538 17.1901 26.5776 17.5643 26.4288 17.9135C26.28 18.2627 26.0616 18.5801 25.7859 18.8473C25.5103 19.1146 25.1829 19.3266 24.8226 19.4711C24.4622 19.6155 24.076 19.6897 23.686 19.6893Z"
        fill="#FA5022" stroke="#FA5022" />
</svg>
