<?xml version="1.0" encoding="UTF-8"?>
<svg width="128px" height="128px" viewBox="0 0 128 128" version="1.1" xmlns="http://www.w3.org/2000/svg" xmlns:xlink="http://www.w3.org/1999/xlink">
    <!-- Generator: Sketch 52.2 (67145) - http://www.bohemiancoding.com/sketch -->
    <title>Small logo</title>
    <desc>Created with Sketch.</desc>
    <g id="Small-logo" stroke="none" stroke-width="1" fill="none" fill-rule="evenodd">
        <g id="alma-a" transform="translate(30.933333, 14.933333)" fill-rule="nonzero">
            <polygon id="Shape" fill="#3651D2" points="2.13333333 80 66.1333333 80 66.1333333 98.1333333 2.13333333 98.1333333"></polygon>
            <path d="M46.6249914,8.30245821 L46.6249914,1.91307768 L65.0666667,1.91307768 L65.0666667,58.8831858 L46.6249914,58.8831858 L46.6249914,51.9856441 C41.6267803,59.6491642 34.455434,60.8 29.7157511,60.8 C21.5177857,60.8 14.6012208,58.7561455 8.32535606,52.1126844 C2.3080195,45.7270403 0,38.3176008 0,30.7811209 C0,21.2045231 3.58567315,13.0291052 8.83866559,7.79056047 C13.8331299,2.80983284 20.7534416,0 28.6928788,0 C33.5599524,0 41.3719989,1.14709931 46.6249914,8.30245821 Z M33.3014242,15.8389381 C29.3298322,15.8389381 25.6205152,17.4979351 23.185105,19.926647 C21.2630043,21.8397247 18.9549848,25.1614553 18.9549848,30.2729597 C18.9549848,35.3807276 21.1356137,38.7024582 22.7991861,40.4922321 C25.361987,43.1712881 29.3298322,44.9610619 33.6873431,44.9610619 C37.4004069,44.9610619 40.8586894,43.4291052 43.2940996,41.0003933 C45.7295098,38.7024582 47.7752543,35.126647 47.7752543,30.2729597 C47.7752543,26.1852507 46.2390725,22.3516224 43.548881,19.7958702 C40.7312987,17.1168142 36.632316,15.8352016 33.3014242,15.8352016 L33.3014242,15.8389381 Z" id="Shape" fill="#262626"></path>
        </g>
    </g>
</svg>