<svg width="83" height="42" viewBox="0 0 83 42" fill="none" xmlns="http://www.w3.org/2000/svg">
<rect x="0.5" y="0.5" width="82" height="41" rx="6.5" fill="white"/>
<path d="M32.686 11H14.314C13.1688 11.0015 12.0711 11.4435 11.2621 12.2288C10.4532 13.0141 9.9992 14.0784 10 15.1877V26.8123C9.9992 27.9216 10.4532 28.9859 11.2621 29.7712C12.0711 30.5565 13.1688 30.9985 14.314 31H32.686C33.8312 30.9985 34.9289 30.5565 35.7379 29.7712C36.5468 28.9859 37.0008 27.9216 37 26.8123V15.1877C37.0008 14.0784 36.5468 13.0141 35.7379 12.2288C34.9289 11.4435 33.8312 11.0015 32.686 11ZM14.314 12.3107H32.686C33.0755 12.311 33.4611 12.3858 33.8207 12.5306C34.1804 12.6754 34.5071 12.8875 34.782 13.1547C35.057 13.4219 35.275 13.739 35.4234 14.0878C35.5718 14.4367 35.6478 14.8104 35.647 15.1877V15.2865H11.347V15.1877C11.3462 14.8099 11.4224 14.4357 11.5712 14.0865C11.72 13.7373 11.9384 13.4199 12.2141 13.1527C12.4897 12.8854 12.8171 12.6734 13.1774 12.5289C13.5378 12.3845 13.924 12.3103 14.314 12.3107ZM32.686 29.6893H14.314C13.9245 29.689 13.5389 29.6142 13.1793 29.4694C12.8196 29.3246 12.4929 29.1125 12.218 28.8453C11.943 28.5781 11.725 28.261 11.5766 27.9122C11.4282 27.5633 11.3522 27.1896 11.353 26.8123V19.2563H35.653V26.8123C35.6538 27.1901 35.5776 27.5643 35.4288 27.9135C35.28 28.2627 35.0616 28.5801 34.7859 28.8473C34.5103 29.1146 34.1829 29.3266 33.8226 29.4711C33.4622 29.6155 33.076 29.6897 32.686 29.6893Z" fill="#FA5022" stroke="#FA5022"/>
<rect x="47" y="6" width="30" height="30" rx="4" fill="#1A1A1A"/>
<path d="M60.8599 25.224V27H53.2919V25.912C53.2919 25.4 53.3665 24.92 53.5159 24.472C53.6652 24.024 53.8359 23.6507 54.0279 23.352C54.2305 23.0427 54.5025 22.744 54.8439 22.456C55.1852 22.168 55.4732 21.944 55.7079 21.784C55.9532 21.624 56.2625 21.4427 56.6359 21.24C57.4145 20.824 57.9425 20.4827 58.2199 20.216C58.4972 19.9387 58.6359 19.5813 58.6359 19.144C58.6359 18.6427 58.4865 18.2747 58.1879 18.04C57.8892 17.8053 57.4092 17.688 56.7479 17.688C55.8092 17.688 54.8492 17.9333 53.8679 18.424L53.5639 16.792C54.6519 16.248 55.7879 15.976 56.9719 15.976C59.5852 15.976 60.8919 17 60.8919 19.048C60.8919 19.4213 60.8332 19.768 60.7159 20.088C60.6092 20.3973 60.4812 20.664 60.3319 20.888C60.1825 21.1013 59.9585 21.3253 59.6599 21.56C59.3612 21.7947 59.0999 21.9813 58.8759 22.12C58.6519 22.2587 58.3425 22.44 57.9479 22.664C57.1265 23.1227 56.5239 23.5333 56.1399 23.896C55.7665 24.2587 55.5479 24.7013 55.4839 25.224H60.8599ZM64.7204 27H62.2244L65.2164 22.68L62.4164 18.648H64.9444L66.4324 21.24L67.9204 18.648H70.3844L67.6004 22.664L70.5924 27H68.0324L66.3844 24.12L64.7204 27Z" fill="white"/>
<rect x="0.5" y="0.5" width="82" height="41" rx="6.5" stroke="#E1E4E6"/>
</svg>
