<svg width="83" height="42" viewBox="0 0 83 42" fill="none" xmlns="http://www.w3.org/2000/svg">
<rect x="0.5" y="0.5" width="82" height="41" rx="6.5" fill="white"/>
<path d="M32.686 11H14.314C13.1688 11.0015 12.0711 11.4435 11.2621 12.2288C10.4532 13.0141 9.9992 14.0784 10 15.1877V26.8123C9.9992 27.9216 10.4532 28.9859 11.2621 29.7712C12.0711 30.5565 13.1688 30.9985 14.314 31H32.686C33.8312 30.9985 34.9289 30.5565 35.7379 29.7712C36.5468 28.9859 37.0008 27.9216 37 26.8123V15.1877C37.0008 14.0784 36.5468 13.0141 35.7379 12.2288C34.9289 11.4435 33.8312 11.0015 32.686 11ZM14.314 12.3107H32.686C33.0755 12.311 33.4611 12.3858 33.8207 12.5306C34.1804 12.6754 34.5071 12.8875 34.782 13.1547C35.057 13.4219 35.275 13.739 35.4234 14.0878C35.5718 14.4367 35.6478 14.8104 35.647 15.1877V15.2865H11.347V15.1877C11.3462 14.8099 11.4224 14.4357 11.5712 14.0865C11.72 13.7373 11.9384 13.4199 12.2141 13.1527C12.4897 12.8854 12.8171 12.6734 13.1774 12.5289C13.5378 12.3845 13.924 12.3103 14.314 12.3107ZM32.686 29.6893H14.314C13.9245 29.689 13.5389 29.6142 13.1793 29.4694C12.8196 29.3246 12.4929 29.1125 12.218 28.8453C11.943 28.5781 11.725 28.261 11.5766 27.9122C11.4282 27.5633 11.3522 27.1896 11.353 26.8123V19.2563H35.653V26.8123C35.6538 27.1901 35.5776 27.5643 35.4288 27.9135C35.28 28.2627 35.0616 28.5801 34.7859 28.8473C34.5103 29.1146 34.1829 29.3266 33.8226 29.4711C33.4622 29.6155 33.076 29.6897 32.686 29.6893Z" fill="#FA5022" stroke="#FA5022"/>
<rect x="47" y="6" width="30" height="30" rx="4" fill="#1A1A1A"/>
<path d="M56.8599 15.896C58.1719 15.896 59.2065 16.3067 59.9639 17.128C60.7319 17.9387 61.1159 19.2347 61.1159 21.016V21.736C61.1159 23.5387 60.6572 24.8933 59.7399 25.8C58.8332 26.696 57.6172 27.144 56.0919 27.144C54.9292 27.144 53.9372 26.952 53.1159 26.568L53.4359 24.968C54.2572 25.288 55.1105 25.448 55.9959 25.448C58.0119 25.448 59.0199 24.2747 59.0199 21.928V21.752C58.5825 22.6053 57.6972 23.032 56.3639 23.032C55.3079 23.032 54.4492 22.7227 53.7879 22.104C53.1265 21.4853 52.7959 20.6427 52.7959 19.576C52.7959 18.3813 53.1639 17.4693 53.8999 16.84C54.6359 16.2107 55.6225 15.896 56.8599 15.896ZM56.8919 17.48C56.3052 17.48 55.8412 17.6453 55.4999 17.976C55.1585 18.3067 54.9879 18.8027 54.9879 19.464C54.9879 20.1147 55.1585 20.6107 55.4999 20.952C55.8412 21.2827 56.3052 21.448 56.8919 21.448C57.4785 21.448 57.9425 21.2827 58.2839 20.952C58.6252 20.6213 58.7959 20.1253 58.7959 19.464C58.7959 18.8347 58.6199 18.3493 58.2679 18.008C57.9159 17.656 57.4572 17.48 56.8919 17.48ZM64.7204 27H62.2244L65.2164 22.68L62.4164 18.648H64.9444L66.4324 21.24L67.9204 18.648H70.3844L67.6004 22.664L70.5924 27H68.0324L66.3844 24.12L64.7204 27Z" fill="white"/>
<rect x="0.5" y="0.5" width="82" height="41" rx="6.5" stroke="#E1E4E6"/>
</svg>
